<?xml version="1.0" encoding="UTF-8"?>
<svg xmlns="http://www.w3.org/2000/svg" xmlns:xlink="http://www.w3.org/1999/xlink" width="16pt" height="16pt" viewBox="0 0 16 16" version="1.1">
    <g id="SagemakerStudio">
        <path style=" stroke:none;fill-rule:evenodd;fill-opacity:1;" d="M 9.984375 9.941406 C 9.984375 10.105469 9.851562 10.238281 9.691406 10.238281 C 9.53125 10.238281 9.398438 10.105469 9.398438 9.941406 C 9.398438 9.78125 9.53125 9.648438 9.691406 9.648438 C 9.851562 9.648438 9.984375 9.78125 9.984375 9.941406 Z M 10.945312 3.964844 C 10.785156 3.964844 10.652344 3.832031 10.652344 3.671875 C 10.652344 3.507812 10.785156 3.378906 10.945312 3.378906 C 11.109375 3.378906 11.238281 3.507812 11.238281 3.671875 C 11.238281 3.832031 11.109375 3.964844 10.945312 3.964844 Z M 9.804688 6.898438 C 9.804688 7.058594 9.675781 7.191406 9.511719 7.191406 C 9.351562 7.191406 9.21875 7.058594 9.21875 6.898438 C 9.21875 6.734375 9.351562 6.601562 9.511719 6.601562 C 9.675781 6.601562 9.804688 6.734375 9.804688 6.898438 Z M 11.367188 12.09375 C 11.367188 11.933594 11.5 11.800781 11.664062 11.800781 C 11.824219 11.800781 11.957031 11.933594 11.957031 12.09375 C 11.957031 12.253906 11.824219 12.386719 11.664062 12.386719 C 11.5 12.386719 11.367188 12.253906 11.367188 12.09375 Z M 12.84375 10.433594 C 12.738281 10.492188 12.671875 10.605469 12.671875 10.722656 L 12.671875 12.789062 L 10.292969 14.195312 L 10.292969 12.515625 L 10.804688 12.515625 C 10.960938 12.832031 11.285156 13.054688 11.664062 13.054688 C 12.191406 13.054688 12.625 12.625 12.625 12.09375 C 12.625 11.5625 12.191406 11.132812 11.664062 11.132812 C 11.21875 11.132812 10.847656 11.4375 10.738281 11.851562 L 9.960938 11.851562 C 9.777344 11.851562 9.628906 12 9.628906 12.183594 L 9.628906 14.589844 L 9.492188 14.667969 L 8.324219 13.992188 L 8.324219 5.347656 L 9.269531 5.347656 L 9.269531 5.972656 C 8.855469 6.082031 8.550781 6.453125 8.550781 6.898438 C 8.550781 7.425781 8.984375 7.855469 9.511719 7.855469 C 10.042969 7.855469 10.472656 7.425781 10.472656 6.898438 C 10.472656 6.519531 10.253906 6.195312 9.933594 6.039062 L 9.933594 5.347656 L 11.035156 5.347656 C 11.21875 5.347656 11.367188 5.199219 11.367188 5.015625 L 11.367188 4.527344 C 11.6875 4.371094 11.90625 4.046875 11.90625 3.671875 C 11.90625 3.140625 11.476562 2.710938 10.945312 2.710938 C 10.417969 2.710938 9.984375 3.140625 9.984375 3.671875 C 9.984375 4.117188 10.289062 4.488281 10.703125 4.597656 L 10.703125 4.683594 L 8.324219 4.683594 L 8.324219 2.269531 L 9.789062 1.390625 L 12.851562 3.257812 L 12.851562 5.3125 C 12.851562 5.433594 12.917969 5.542969 13.023438 5.601562 L 14.644531 6.523438 L 14.644531 7.550781 L 11.574219 7.550781 C 11.390625 7.550781 11.238281 7.699219 11.238281 7.882812 L 11.238281 9.519531 L 10.550781 9.519531 C 10.394531 9.203125 10.070312 8.984375 9.691406 8.984375 C 9.160156 8.984375 8.730469 9.414062 8.730469 9.941406 C 8.730469 10.472656 9.160156 10.902344 9.691406 10.902344 C 10.136719 10.902344 10.507812 10.597656 10.617188 10.1875 L 11.574219 10.1875 C 11.757812 10.1875 11.90625 10.039062 11.90625 9.855469 L 11.90625 8.214844 L 14.644531 8.214844 L 14.644531 9.417969 Z M 5.75 9.46875 C 5.910156 9.46875 6.042969 9.601562 6.042969 9.765625 C 6.042969 9.925781 5.910156 10.058594 5.75 10.058594 C 5.585938 10.058594 5.453125 9.925781 5.453125 9.765625 C 5.453125 9.601562 5.585938 9.46875 5.75 9.46875 Z M 5.277344 4.207031 C 5.277344 4.046875 5.40625 3.914062 5.570312 3.914062 C 5.730469 3.914062 5.863281 4.046875 5.863281 4.207031 C 5.863281 4.371094 5.730469 4.503906 5.570312 4.503906 C 5.40625 4.503906 5.277344 4.371094 5.277344 4.207031 Z M 4.070312 6.898438 C 4.070312 7.058594 3.941406 7.191406 3.777344 7.191406 C 3.617188 7.191406 3.484375 7.058594 3.484375 6.898438 C 3.484375 6.734375 3.617188 6.601562 3.777344 6.601562 C 3.941406 6.601562 4.070312 6.734375 4.070312 6.898438 Z M 5.8125 12.632812 C 5.8125 12.46875 5.945312 12.335938 6.105469 12.335938 C 6.269531 12.335938 6.402344 12.46875 6.402344 12.632812 C 6.402344 12.792969 6.269531 12.925781 6.105469 12.925781 C 5.945312 12.925781 5.8125 12.792969 5.8125 12.632812 Z M 6.304688 14.667969 L 3.125 12.789062 L 3.125 10.722656 C 3.125 10.601562 3.058594 10.492188 2.953125 10.433594 L 2.832031 10.367188 L 3.714844 10.367188 L 3.714844 12.722656 C 3.714844 12.90625 3.863281 13.054688 4.046875 13.054688 L 5.25 13.054688 C 5.40625 13.371094 5.730469 13.59375 6.105469 13.59375 C 6.636719 13.59375 7.066406 13.160156 7.066406 12.632812 C 7.066406 12.101562 6.636719 11.671875 6.105469 11.671875 C 5.664062 11.671875 5.289062 11.976562 5.183594 12.386719 L 4.378906 12.386719 L 4.378906 10.035156 C 4.378906 9.847656 4.230469 9.699219 4.046875 9.699219 L 1.621094 9.699219 L 1.332031 9.542969 L 1.332031 6.523438 L 2.957031 5.601562 C 3.0625 5.542969 3.125 5.433594 3.125 5.3125 L 3.125 4.453125 L 3.535156 4.453125 L 3.535156 5.972656 C 3.121094 6.082031 2.816406 6.453125 2.816406 6.898438 C 2.816406 7.425781 3.246094 7.855469 3.777344 7.855469 C 4.308594 7.855469 4.738281 7.425781 4.738281 6.898438 C 4.738281 6.519531 4.519531 6.195312 4.199219 6.039062 L 4.199219 4.453125 L 4.644531 4.453125 C 4.753906 4.863281 5.125 5.167969 5.570312 5.167969 C 6.101562 5.167969 6.53125 4.738281 6.53125 4.207031 C 6.53125 3.679688 6.101562 3.25 5.570312 3.25 C 5.191406 3.25 4.867188 3.46875 4.710938 3.785156 L 3.125 3.785156 L 3.125 3.257812 L 6.1875 1.390625 L 7.65625 2.265625 L 7.65625 6.117188 L 5.660156 6.117188 C 5.476562 6.117188 5.324219 6.265625 5.324219 6.449219 L 5.324219 8.90625 C 5.007812 9.0625 4.789062 9.386719 4.789062 9.765625 C 4.789062 10.292969 5.21875 10.726562 5.75 10.726562 C 6.277344 10.726562 6.710938 10.292969 6.710938 9.765625 C 6.710938 9.320312 6.402344 8.949219 5.992188 8.839844 L 5.992188 6.78125 L 7.65625 6.78125 L 7.65625 13.863281 Z M 15.3125 6.328125 C 15.3125 6.207031 15.246094 6.097656 15.140625 6.039062 L 13.519531 5.117188 L 13.519531 3.070312 C 13.519531 2.953125 13.457031 2.847656 13.359375 2.785156 L 9.964844 0.714844 C 9.859375 0.652344 9.726562 0.652344 9.617188 0.714844 L 7.988281 1.691406 L 6.359375 0.714844 C 6.253906 0.648438 6.121094 0.652344 6.015625 0.714844 L 2.617188 2.785156 C 2.519531 2.847656 2.457031 2.953125 2.457031 3.070312 L 2.457031 5.117188 L 0.835938 6.039062 C 0.730469 6.097656 0.667969 6.207031 0.667969 6.328125 L 0.667969 9.738281 C 0.667969 9.859375 0.734375 9.972656 0.839844 10.03125 L 2.457031 10.921875 L 2.457031 12.976562 C 2.457031 13.09375 2.519531 13.203125 2.621094 13.265625 L 6.136719 15.34375 C 6.242188 15.402344 6.371094 15.402344 6.476562 15.339844 L 7.878906 14.507812 L 9.328125 15.34375 C 9.378906 15.375 9.4375 15.390625 9.492188 15.390625 C 9.550781 15.390625 9.609375 15.375 9.664062 15.34375 L 13.175781 13.265625 C 13.277344 13.207031 13.339844 13.097656 13.339844 12.976562 L 13.339844 10.917969 L 15.140625 9.90625 C 15.246094 9.847656 15.3125 9.734375 15.3125 9.613281 Z M 15.3125 6.328125 "/>
    </g>
</svg>